HIERARCHY
ROOT Hips
{
	OFFSET 0.00000 0.00000 0.00000
	CHANNELS 6 Xposition Yposition Zposition Zrotation Yrotation Xrotation 
	JOINT LHipJoint
	{
		OFFSET 0 0 0
		CHANNELS 3 Zrotation Yrotation Xrotation
		JOINT LeftHip
		{
			OFFSET 1.92384 -1.64427 0.83032
			CHANNELS 3 Zrotation Yrotation Xrotation
			JOINT LeftKnee
			{
				OFFSET 2.52872 -6.94761 0.00000
				CHANNELS 3 Zrotation Yrotation Xrotation
				JOINT LeftAnkle
				{
					OFFSET 2.51827 -6.91890 0.00000
					CHANNELS 3 Zrotation Yrotation Xrotation
					JOINT LeftToe
					{
						OFFSET 0.22757 -0.62524 2.06528
						CHANNELS 3 Zrotation Yrotation Xrotation
						End Site
						{
							OFFSET 0.00000 -0.00000 1.08218
						}
					}
				}
			}
		}
	}
	JOINT RHipJoint
	{
		OFFSET 0 0 0
		CHANNELS 3 Zrotation Yrotation Xrotation
		JOINT RightHip
		{
			OFFSET -2.09517 -1.64427 0.83032
			CHANNELS 3 Zrotation Yrotation Xrotation
			JOINT RightKnee
			{
				OFFSET -2.55173 -7.01082 0.00000
				CHANNELS 3 Zrotation Yrotation Xrotation
				JOINT RightAnkle
				{
					OFFSET -2.50265 -6.87598 0.00000
					CHANNELS 3 Zrotation Yrotation Xrotation
					JOINT RightToe
					{
						OFFSET -0.22612 -0.62126 1.98677
						CHANNELS 3 Zrotation Yrotation Xrotation
						End Site
						{
							OFFSET -0.00000 -0.00000 1.04433
						}
					}
				}
			}
		}
	}
	JOINT lowerback
	{
		OFFSET 0 0 0
		CHANNELS 3 Zrotation Yrotation Xrotation
		JOINT Chest
		{
			OFFSET 0.02839 1.68926 0.31690
			CHANNELS 3 Zrotation Yrotation Xrotation
			JOINT Chest2
			{
				OFFSET -0.01522 1.70183 0.21192
				CHANNELS 3 Zrotation Yrotation Xrotation
				JOINT lowerneck
				{
					OFFSET 0 0 0
					CHANNELS 3 Zrotation Yrotation Xrotation
					JOINT Neck
					{
						OFFSET -0.04523 1.88988 0.10630
						CHANNELS 3 Zrotation Yrotation Xrotation
						JOINT Head
						{
							OFFSET 0.05172 1.78070 -0.56858
							CHANNELS 3 Zrotation Yrotation Xrotation
							End Site
							{
								OFFSET 0.01532 1.90392 -0.20434
							}
						}
					}
				}
				JOINT LeftCollar
				{
					OFFSET 0 0 0
					CHANNELS 3 Zrotation Yrotation Xrotation
					JOINT LeftShoulder
					{
						OFFSET 3.25522 0.75486 0.22086
CHANNELS 3 Zrotation Xrotation Yrotation
						JOINT LeftElbow
						{
OFFSET 0 -4.856450 0.000000
CHANNELS 3 Zrotation Xrotation Yrotation
							JOINT LeftWrist
							{
OFFSET 0 -2.798740 0.000000
CHANNELS 3 Zrotation Xrotation Yrotation
								JOINT lhand
								{
									OFFSET 0 0 0
CHANNELS 3 Zrotation Xrotation Yrotation
									JOINT LFingers
									{
OFFSET 0 -0.573400 0.000000
CHANNELS 3 Zrotation Xrotation Yrotation
										End Site
										{
OFFSET 0 -0.462290 0.000000
										}
									}
								}
								JOINT LThumb
								{
OFFSET 0 0.000000 0.000000
CHANNELS 3 Zrotation Xrotation Yrotation
									End Site
									{
OFFSET 0 -0.469350 0.469350
									}
								}
							}
						}
					}
				}
				JOINT RightCollar
				{
					OFFSET 0 0 0
					CHANNELS 3 Zrotation Yrotation Xrotation
					JOINT RightShoulder
					{
						OFFSET -3.29079 0.52751 0.36356
CHANNELS 3 Zrotation Xrotation Yrotation
						JOINT RightElbow
						{
OFFSET 0 -4.670180 0.000000
CHANNELS 3 Zrotation Xrotation Yrotation
							JOINT RightWrist
							{
OFFSET 0 -2.655340 0.000000
CHANNELS 3 Zrotation Xrotation Yrotation
								JOINT rhand
								{
									OFFSET 0 0 0
CHANNELS 3 Zrotation Xrotation Yrotation
									JOINT RFingers
									{
OFFSET 0 -0.594070 0.000000
CHANNELS 3 Zrotation Xrotation Yrotation
										End Site
										{
OFFSET 0 -0.478950 0.000000
										}
									}
								}
								JOINT RThumb
								{
OFFSET 0 0.000000 0.000000
CHANNELS 3 Zrotation Xrotation Yrotation
									End Site
									{
OFFSET 0 -0.486270 0.486270
									}
								}
							}
						}
					}
				}
			}
		}
	}
}
MOTION
Frames: 11
Frame Time: 0.008333333333333333
4.078800 16.915300 39.745900 176.133000 -22.293600 -148.548000 0.000000 0.000000 0.000000 -8.289400 -34.017700 -38.613300 1.937600 8.735000 24.969700 0.388100 0.633000 -12.014600 1.279600 -7.168700 -20.216200 0.000000 0.000000 0.000000 12.132500 24.093500 -38.089300 -2.971000 -10.647900 31.101500 -1.023700 -20.689700 -35.599100 -0.699200 -5.344800 14.894700 1.381400 7.448700 -17.192500 -7.542300 6.450600 -16.307200 -8.078500 1.307400 -7.149600 24.764800 17.859700 -1.966100 -6.219200 23.022000 27.126900 -2.767900 11.884400 13.209900 -0.000000 0.000000 0.000000 22.290600 21.613500 -67.851300 107.647900 -58.789800 75.221400 -9.134000 -35.807200 -28.628600 0.000000 0.000000 0.000000 -7.125000 0.000000 0.000000 -40.910900 53.715500 10.074500 -0.000000 0.000000 0.000000 -0.858800 29.453600 43.896900 -92.636600 -59.973700 -62.283200 -1.657800 -22.859400 15.598900 0.000000 0.000000 0.000000 7.125000 0.000000 -0.000000 23.707600 44.192400 0.502200
4.080420 16.914760 39.748520 176.110798 -22.590976 -148.528205 0.000000 0.000000 0.000000 -8.207897 -34.140268 -38.665803 1.937699 8.735118 24.970294 0.390120 0.449555 -11.969344 1.279622 -7.168704 -20.216032 0.000000 0.000000 0.000000 12.185179 24.004176 -38.070658 -2.965081 -10.638382 31.069726 -1.037580 -20.772987 -35.764264 -0.719299 -5.419716 15.109649 1.383864 7.408984 -17.113962 -7.512547 6.429323 -16.259442 -8.053610 1.313040 -7.140560 24.918940 17.772617 -1.675431 -6.553483 23.040731 26.725977 -2.938081 11.891236 13.059107 0.000000 0.000000 0.000000 22.170417 21.629694 -67.722968 107.776834 -58.771564 75.331717 -9.137187 -35.707027 -28.897447 0.000000 0.000000 0.000000 -7.125000 0.000000 0.000000 -41.137407 53.924742 10.375738 0.000000 0.000000 0.000000 -0.740205 29.417978 43.623206 -92.666310 -59.973119 -62.308886 -1.503456 -22.488711 15.461288 0.000000 0.000000 0.000000 7.125000 0.000000 0.000000 23.785417 44.049147 0.593623
4.081020 16.917980 39.746600 176.222202 -22.555742 -148.421010 0.000000 0.000000 0.000000 -8.112771 -33.841194 -38.910543 1.948580 8.758120 25.041541 0.400919 0.167015 -12.023541 1.283223 -7.178348 -20.244783 0.000000 0.000000 0.000000 12.287653 24.022835 -38.198970 -2.953379 -10.619179 31.006077 -1.006315 -20.788066 -35.610160 -0.716298 -5.408571 15.077635 1.347685 7.504860 -17.256297 -7.495585 6.564655 -16.253829 -7.982730 1.390494 -7.043772 25.110157 17.678189 -1.346846 -6.938571 23.066403 26.289146 -3.132467 11.901283 12.901368 0.000000 0.000000 0.000000 22.037944 21.649560 -67.582314 107.830462 -58.763963 75.377564 -9.241359 -35.466413 -28.952050 0.000000 0.000000 0.000000 -7.125000 0.000000 0.000000 -41.274854 53.947817 10.445826 0.000000 0.000000 0.000000 -0.531702 29.406812 43.200519 -92.771940 -59.970921 -62.400385 -1.186064 -21.973223 15.229408 0.000000 0.000000 0.000000 7.125000 0.000000 0.000000 23.965676 43.801892 0.754718
4.081340 16.916940 39.750819 176.224409 -22.714034 -148.373424 0.000000 0.000000 0.000000 -8.038514 -33.876169 -39.015807 1.949039 8.759179 25.044916 0.402060 0.012541 -11.984201 1.281716 -7.174428 -20.233145 0.000000 0.000000 0.000000 12.317074 23.943625 -38.284914 -2.957760 -10.626339 31.029738 -1.006357 -20.819739 -35.644761 -0.722115 -5.429942 15.138969 1.345079 7.507283 -17.237388 -7.484124 6.590678 -16.214792 -7.963977 1.416214 -7.005119 25.140023 17.638423 -1.356173 -7.027184 23.031513 26.219468 -3.176305 11.882837 12.884625 0.000000 0.000000 0.000000 21.921240 21.647796 -67.437418 107.908741 -58.752766 75.444466 -9.095715 -35.008352 -28.885224 0.000000 0.000000 0.000000 -7.125000 0.000000 0.000000 -41.090339 53.923063 10.358324 0.000000 0.000000 0.000000 -0.268163 29.373904 42.698151 -92.896160 -59.968300 -62.507820 -0.911273 -21.344294 15.088730 0.000000 0.000000 0.000000 7.125000 0.000000 0.000000 24.145008 43.643295 0.862042
4.081319 16.915980 39.754619 176.218225 -22.855516 -148.336636 0.000000 0.000000 0.000000 -7.990483 -33.899029 -39.096576 1.949138 8.759297 25.045230 0.404219 -0.142116 -11.962019 1.277342 -7.162625 -20.198013 0.000000 0.000000 0.000000 12.358987 23.824683 -38.363330 -2.962540 -10.634160 31.055899 -1.008665 -20.817151 -35.654673 -0.723606 -5.435602 15.155284 1.346690 7.488570 -17.220095 -7.456893 6.585770 -16.177603 -7.934509 1.425222 -6.973822 25.175571 17.604565 -1.312729 -7.085970 23.004676 26.192639 -3.212239 11.871444 12.874101 0.000000 0.000000 0.000000 21.778586 21.684583 -67.212648 108.076732 -58.728584 75.588116 -9.024903 -34.575952 -29.001956 0.000000 0.000000 0.000000 -7.125000 0.000000 0.000000 -41.125654 54.027348 10.483480 0.000000 0.000000 0.000000 0.015972 29.292227 42.179748 -92.910724 -59.967939 -62.520498 -0.883535 -20.509379 14.888220 0.000000 0.000000 0.000000 7.125000 0.000000 0.000000 24.090116 43.457325 0.977884
4.081600 16.915501 39.757599 176.212032 -22.971025 -148.283063 0.000000 0.000000 0.000000 -7.933929 -33.916965 -39.184729 1.948801 8.758603 25.043108 0.406698 -0.289114 -11.949900 1.273813 -7.152935 -20.169403 0.000000 0.000000 0.000000 12.354053 23.800790 -38.431340 -2.964699 -10.637698 31.067594 -1.016681 -20.845998 -35.729294 -0.736974 -5.484404 15.295524 1.332336 7.478012 -17.224141 -7.441297 6.579815 -16.171501 -7.909420 1.427405 -6.968726 25.215714 17.603229 -1.360483 -7.020427 22.968014 26.389407 -3.192253 11.860803 12.956098 0.000000 0.000000 0.000000 21.675921 21.735076 -67.023175 108.165065 -58.715705 75.663570 -8.843854 -34.027649 -28.949223 0.000000 0.000000 0.000000 -7.125000 0.000000 0.000000 -40.921451 54.020286 10.408643 0.000000 0.000000 0.000000 0.311863 29.202844 41.672539 -92.875049 -59.968699 -62.489642 -0.827135 -19.524387 14.751328 0.000000 0.000000 0.000000 7.125000 0.000000 0.000000 24.084781 43.326329 1.060981
4.081120 16.915900 39.759459 176.203596 -23.049862 -148.258424 0.000000 0.000000 0.000000 -7.931024 -33.901236 -39.215845 1.944483 8.749506 25.014879 0.408100 -0.413994 -11.929648 1.278092 -7.164618 -20.203995 0.000000 0.000000 0.000000 12.360739 23.764540 -38.463706 -2.967159 -10.641758 31.080912 -1.017966 -20.873925 -35.766368 -0.734872 -5.476710 15.273415 1.326597 7.468291 -17.196598 -7.421761 6.575316 -16.165408 -7.887257 1.429809 -6.979233 25.213869 17.600408 -1.393233 -6.948276 22.934129 26.581379 -3.166734 11.848483 13.026672 0.000000 0.000000 0.000000 21.579958 21.762261 -66.856934 108.286541 -58.697986 75.767406 -8.522014 -33.478354 -28.996817 0.000000 0.000000 0.000000 -7.125000 0.000000 0.000000 -40.676229 54.118023 10.433174 0.000000 0.000000 0.000000 0.586645 29.102704 41.160681 -92.894193 -59.968301 -62.506220 -0.916390 -18.525114 14.443991 0.000000 0.000000 0.000000 7.125000 0.000000 0.000000 23.890660 43.055152 1.222062
4.079961 16.915699 39.760420 176.202621 -23.123224 -148.240414 0.000000 0.000000 0.000000 -7.921548 -33.887048 -39.240036 1.941263 8.742627 24.993481 0.410138 -0.535846 -11.922021 1.267909 -7.137185 -20.122416 0.000000 0.000000 0.000000 12.359715 23.765492 -38.473977 -2.966979 -10.641359 31.079736 -1.024657 -20.903424 -35.834967 -0.745352 -5.514749 15.382771 1.329248 7.463358 -17.197333 -7.406111 6.575399 -16.155227 -7.870716 1.433992 -6.968165 25.103145 17.559897 -1.541018 -6.775717 22.800838 26.845198 -3.104570 11.787992 13.101233 0.000000 0.000000 0.000000 21.510890 21.777194 -66.730571 108.389476 -58.682827 75.855303 -8.195161 -32.919123 -28.955658 0.000000 0.000000 0.000000 -7.125000 0.000000 0.000000 -40.351559 54.147441 10.357635 0.000000 0.000000 0.000000 0.795610 28.996043 40.710181 -92.922458 -59.967661 -62.530664 -1.148876 -17.489277 14.195391 0.000000 0.000000 0.000000 7.125000 0.000000 0.000000 23.599370 42.852049 1.331346
4.078101 16.915321 39.760401 176.185808 -23.184690 -148.216987 0.000000 0.000000 0.000000 -7.920488 -33.911537 -39.245029 1.936723 8.732946 24.963480 0.410556 -0.587041 -11.912694 1.272979 -7.150822 -20.162988 0.000000 0.000000 0.000000 12.349496 23.738546 -38.492272 -2.968559 -10.643978 31.088514 -1.029899 -20.915544 -35.876354 -0.749876 -5.531134 15.429972 1.314963 7.427581 -17.215904 -7.374740 6.531303 -16.149592 -7.832417 1.415583 -6.963520 24.826691 17.432544 -1.780910 -6.561110 22.524741 27.072236 -3.036179 11.651536 13.121869 0.000000 0.000000 0.000000 21.395171 21.841950 -66.499357 108.532136 -58.661670 75.977145 -7.855854 -32.263935 -28.798526 0.000000 0.000000 0.000000 -7.125000 0.000000 0.000000 -39.919140 54.087721 10.153177 0.000000 0.000000 0.000000 0.889260 28.974884 40.466224 -93.084811 -59.964022 -62.671160 -1.422432 -16.597187 13.984297 0.000000 0.000000 0.000000 7.125000 0.000000 0.000000 23.288739 42.686925 1.412874
4.075541 16.915500 39.759000 176.175379 -23.243519 -148.205591 0.000000 0.000000 0.000000 -7.938585 -33.909026 -39.234941 1.933603 8.726386 24.943200 0.411179 -0.653151 -11.901865 1.270603 -7.144468 -20.144044 0.000000 0.000000 0.000000 12.349285 23.720325 -38.481089 -2.968100 -10.643200 31.085800 -1.030846 -20.947226 -35.915521 -0.750005 -5.531505 15.430942 1.286307 7.362889 -17.257638 -7.314502 6.448293 -16.142885 -7.757494 1.379589 -6.955986 24.380118 17.178171 -2.215972 -6.305916 22.025681 27.402474 -2.966813 11.397839 13.155276 0.000000 0.000000 0.000000 21.222539 21.939209 -66.221426 108.702645 -58.636160 76.122745 -7.625172 -31.727723 -28.737379 0.000000 0.000000 0.000000 -7.125000 0.000000 0.000000 -39.663068 54.082767 10.065146 0.000000 0.000000 0.000000 0.817124 28.989969 40.502399 -93.236754 -59.960359 -62.802750 -1.631548 -15.960277 13.888164 0.000000 0.000000 0.000000 7.125000 0.000000 0.000000 23.076198 42.620155 1.438893
4.074100 16.915699 39.757603 176.178937 -23.290201 -148.169063 0.000000 0.000000 0.000000 -7.917704 -33.902940 -39.273404 1.930802 8.720405 24.924615 0.412098 -0.722686 -11.894979 1.266888 -7.134268 -20.113704 0.000000 0.000000 0.000000 12.331316 23.750549 -38.503643 -2.967301 -10.641902 31.081607 -1.035227 -20.974167 -35.968305 -0.755914 -5.552949 15.492740 1.213000 7.257609 -17.346878 -7.206356 6.308445 -16.148406 -7.609626 1.317559 -6.956075 23.752096 16.807546 -2.872204 -5.961397 21.303861 27.884861 -2.871483 11.029441 13.223837 0.000000 0.000000 0.000000 20.975577 22.099223 -65.862196 108.899559 -58.606337 76.290895 -7.479765 -31.243596 -28.732996 0.000000 0.000000 0.000000 -7.125000 0.000000 0.000000 -39.529854 54.106684 10.047101 0.000000 0.000000 0.000000 0.541487 29.018116 40.864355 -93.263311 -59.959697 -62.825696 -1.826432 -15.639064 13.758688 0.000000 0.000000 0.000000 7.125000 0.000000 0.000000 22.863838 42.521009 1.483452
